<?xml version="1.0" encoding="UTF-8"?>
<svg width="152px" height="56px" viewBox="0 0 152 56" version="1.1" xmlns="http://www.w3.org/2000/svg" xmlns:xlink="http://www.w3.org/1999/xlink">
    <title>_UI/Logos/Default</title>
    <g id="_UI/Logos/Default" stroke="none" stroke-width="1" fill="none" fill-rule="evenodd">
        <g id="Group-11" transform="translate(63.657254, 20.179549)" fill="#1D1D1B">
            <path d="M15.8114754,15.0762295 C15.8114754,16.1266393 15.9692623,16.757377 16.4422131,16.9413934 C16.5204918,17.0196721 16.5204918,17.177459 16.4159836,17.2561475 C16.1004098,17.2561475 15.6278689,17.3614754 15.1286885,17.492623 C13.7368852,17.8602459 11.8454918,18.1754098 10.427459,18.1754098 C7.30163934,18.1754098 4.43893443,17.3086066 2.41639344,15.2602459 C0.84057377,13.6844262 0,11.6094262 0,9.29795082 C0,7.06557377 0.735655738,4.80655738 2.36393443,3.07295082 C4.12377049,1.23483607 6.72377049,0 10.6897541,0 C12.1868852,0 13.5790984,0.288934426 14.0258197,0.394262295 C14.5245902,0.499180328 15.3389344,0.683196721 15.6540984,0.630327869 C15.6540984,1.49713115 15.8114754,2.86311475 16.0479508,4.43893443 C15.9692623,4.64918033 15.4963115,4.67540984 15.3389344,4.51762295 C14.6036885,1.68114754 12.6336066,0.788114754 9.9545082,0.788114754 C4.85901639,0.788114754 2.62663934,4.41270492 2.62663934,8.35245902 C2.62663934,13.395082 5.22663934,17.3614754 10.5061475,17.3614754 C12.1344262,17.3614754 13.1061475,17.0196721 13.395082,16.5733607 C13.5266393,16.3897541 13.6577869,15.9168033 13.6577869,15.0762295 L13.6577869,14.0258197 C13.6577869,11.8196721 13.5790984,11.6618852 11.9508197,11.4782787 L10.795082,11.3467213 C10.5848361,11.2418033 10.6114754,10.7688525 10.795082,10.6901639 C11.5565574,10.742623 13.0016393,10.7688525 14.5508197,10.7688525 C15.5754098,10.7688525 16.4684426,10.742623 17.3352459,10.6901639 C17.5188525,10.795082 17.545082,11.1893443 17.3610656,11.3467213 L16.9409836,11.3991803 C15.8377049,11.5307377 15.8114754,12.2659836 15.8114754,13.6053279 L15.8114754,15.0762295 Z" id="Fill-1"></path>
            <path d="M23.6891803,8.1422541 C23.6891803,8.61479508 23.6891803,8.90372951 23.7678689,9.00905738 C23.8469672,9.08815574 24.2408197,9.14061475 25.5801639,9.14061475 C26.5260656,9.14061475 27.5236066,9.03528689 28.2859016,8.45782787 C28.994918,7.90618852 29.5990164,6.98692623 29.5990164,5.20045082 C29.5990164,3.12586066 28.3117213,1.15577869 25.3965574,1.15577869 C23.7678689,1.15577869 23.6891803,1.26069672 23.6891803,1.99635246 L23.6891803,8.1422541 Z M21.5354918,4.38651639 C21.5354918,1.89143443 21.4568033,1.44471311 20.3797541,1.31356557 L19.5391803,1.2082377 C19.3555738,1.07709016 19.3555738,0.656598361 19.5654098,0.551680328 C21.0363115,0.420532787 22.8486066,0.341434426 25.422377,0.341434426 C27.0510656,0.341434426 28.6006557,0.472991803 29.8092623,1.12954918 C31.069918,1.78610656 31.9891803,2.96807377 31.9891803,4.80659836 C31.9891803,7.30168033 30.0190984,8.66766393 28.7059836,9.19266393 C28.5748361,9.35045082 28.7059836,9.61315574 28.837541,9.82340164 C30.9383607,13.2115164 32.3305738,15.3127459 34.1162295,16.809877 C34.5629508,17.2037295 35.219918,17.4926639 35.9285246,17.545123 C36.0604918,17.597582 36.0863115,17.8078279 35.9551639,17.9131557 C35.7190984,17.9918443 35.2986066,18.0443033 34.7994262,18.0443033 C32.5666393,18.0443033 31.2277049,17.3877459 29.362541,14.734877 C28.6797541,13.7631557 27.6027049,11.9508607 26.7883607,10.7688934 C26.394918,10.1910246 25.9744262,9.92831967 24.9240164,9.92831967 C23.7416393,9.92831967 23.6891803,9.95454918 23.6891803,10.5065984 L23.6891803,13.8156148 C23.6891803,16.5734016 23.7416393,16.8885656 25.2654098,17.0988115 L25.8166393,17.1775 C25.9744262,17.3086475 25.9215574,17.7553689 25.7641803,17.8340574 C24.5822131,17.7820082 23.6891803,17.7553689 22.6387705,17.7553689 C21.5354918,17.7553689 20.59,17.7820082 19.3555738,17.8340574 C19.1977869,17.7553689 19.1453279,17.3615164 19.3031148,17.1775 L19.9592623,17.0988115 C21.4830328,16.9147951 21.5354918,16.5734016 21.5354918,13.8156148 L21.5354918,4.38651639 Z" id="Fill-3"></path>
            <path d="M51.3971311,9.82319672 C51.3971311,5.48959016 49.4795082,0.814590164 44.4631148,0.814590164 C41.7315574,0.814590164 38.1856557,2.67893443 38.1856557,8.43139344 C38.1856557,12.3186885 40.0766393,17.3617213 45.2508197,17.3617213 C48.402459,17.3617213 51.3971311,14.997377 51.3971311,9.82319672 M35.5590164,9.27155738 C35.5590164,4.01868852 39.4987705,0.000245901639 44.9094262,0.000245901639 C50.9770492,0.000245901639 54.0233607,4.38631148 54.0233607,9.0092623 C54.0233607,14.3145902 49.9786885,18.1756557 44.9094262,18.1756557 C39.0782787,18.1756557 35.5590164,13.9994262 35.5590164,9.27155738" id="Fill-5"></path>
            <path d="M70.5157787,7.01278689 C70.5157787,5.3845082 70.4633197,2.36401639 70.0165984,1.57590164 C69.8329918,1.2607377 69.3604508,1.07713115 68.7034836,1.02467213 L68.0469262,0.971803279 C67.8895492,0.788196721 67.9420082,0.446803279 68.0993852,0.34147541 C69.0973361,0.394344262 70.0690574,0.42057377 71.0936475,0.42057377 C72.1969262,0.42057377 72.9059426,0.394344262 73.8514344,0.34147541 C74.0616803,0.473032787 74.0354508,0.81442623 73.9043033,0.971803279 L73.2735656,1.02467213 C72.6170082,1.07713115 72.1178279,1.31360656 71.9604508,1.655 C71.5928279,2.52180328 71.5928279,5.54229508 71.5928279,7.01278689 L71.5928279,9.98081967 C71.5928279,12.2656557 71.2247951,14.682459 69.7543033,16.2582787 C68.6247951,17.4927049 66.6813525,18.1754918 64.7375,18.1754918 C62.9252049,18.1754918 61.1129098,17.8340984 59.8260246,16.7312295 C58.4342213,15.5754918 57.7772541,13.6578689 57.7772541,10.532459 L57.7772541,4.33368852 C57.7772541,1.60213115 57.7247951,1.15581967 56.2010246,1.02467213 L55.544877,0.971803279 C55.3870902,0.866885246 55.4395492,0.42057377 55.5973361,0.34147541 C56.9104508,0.394344262 57.8034836,0.42057377 58.8543033,0.42057377 C59.9309426,0.42057377 60.7977459,0.394344262 62.0846311,0.34147541 C62.242418,0.42057377 62.294877,0.866885246 62.1375,0.971803279 L61.5071721,1.02467213 C59.9834016,1.15581967 59.9309426,1.60213115 59.9309426,4.33368852 L59.9309426,10.007459 C59.9309426,14.2357377 61.2440574,17.0197541 65.2629098,17.0197541 C69.0715164,17.0197541 70.5157787,14.0254918 70.5157787,10.0332787 L70.5157787,7.01278689 Z" id="Fill-7"></path>
            <path d="M80.3630328,13.8155328 C80.3630328,16.5733197 80.4159016,16.9147131 82.0966393,17.0987295 L82.8056557,17.177418 C82.9634426,17.3085656 82.9109836,17.7552869 82.7531967,17.8343852 C81.2564754,17.7819262 80.3892623,17.7552869 79.3388525,17.7552869 C78.2359836,17.7552869 77.290082,17.7819262 76.1347541,17.8343852 C75.9769672,17.7552869 75.9245082,17.3352049 76.0818852,17.177418 L76.6335246,17.0987295 C78.1568852,16.8884836 78.2093443,16.5733197 78.2093443,13.8155328 L78.2093443,4.12372951 C78.2093443,1.89135246 78.1568852,1.44463115 76.974918,1.31348361 L76.0294262,1.20815574 C75.8458197,1.05077869 75.8716393,0.65692623 76.0818852,0.551598361 C77.4740984,0.367581967 79.102377,0.341762295 81.2822951,0.341762295 C83.4622131,0.341762295 85.0909016,0.630696721 86.3253279,1.39217213 C87.5335246,2.15405738 88.4265574,3.51963115 88.4265574,5.33192623 C88.4265574,7.74831967 86.9290164,8.95692623 85.8003279,9.50815574 C84.6441803,10.0597951 83.252377,10.2958607 82.1753279,10.2958607 C81.9917213,10.217582 81.9917213,9.82331967 82.1490984,9.77086066 C84.9855738,9.24586066 86.0101639,7.6429918 86.0101639,5.35815574 C86.0101639,2.81061475 84.5130328,1.15569672 81.7814754,1.15569672 C80.3892623,1.15569672 80.3630328,1.26102459 80.3630328,2.10118852 L80.3630328,13.8155328 Z" id="Fill-9"></path>
        </g>
        <path d="M56,28 C56,43.4639344 43.4639344,56 28,56 C12.5360656,56 3.19744231e-14,43.4639344 3.19744231e-14,28 C3.19744231e-14,12.5364754 12.5360656,0 28,0 C43.4639344,0 56,12.5364754 56,28" id="Fill-12" fill="#8A2432"></path>
        <path d="M42.3033197,37.5082787 C41.5971721,38.4767213 40.7004508,39.2246721 39.6094672,39.7529508 C38.5160246,40.2812295 37.3820082,40.5447541 36.2012705,40.5447541 C34.8979918,40.5447541 33.709877,40.1881967 32.6361066,39.4759016 C31.5619262,38.7627869 30.7082377,37.7681148 30.0766803,36.4910656 C29.4422541,35.2148361 29.125041,33.7660656 29.125041,32.1480328 C29.125041,30.457459 29.425041,28.9689344 30.0213525,27.6845082 C30.6213525,26.400082 31.4361066,25.4086885 32.4652049,24.7136066 C33.4955328,24.0181148 34.6352869,23.6709836 35.8840574,23.6709836 C37.4172541,23.6709836 38.6713525,24.132459 39.6479918,25.0570492 C40.6246311,25.9804098 41.2025,27.2611475 41.3770902,28.8984426 L42.3287295,28.8984426 L42.3287295,22.7718033 L40.9029098,22.7718033 L41.0352869,24.1988525 C39.4143852,23.1254918 37.6369262,22.5877869 35.6996311,22.5877869 C33.7463525,22.5877869 32.0783197,23.0590984 30.6967623,24.0009016 C30.0061885,24.4713934 29.4533197,25.0136066 28.9344672,25.6271311 L28.9344672,16.3136066 C28.9697131,15.952541 29.1188934,15.6406557 29.3836475,15.3767213 C29.6484016,15.112377 30.0877459,14.9713934 30.7041393,14.9541803 L30.7041393,14.0828689 L24.7697131,14.0828689 L24.7697131,14.9541803 C25.3861066,14.9713934 25.8275,15.112377 26.0902049,15.3771311 C26.354959,15.6406557 26.5008607,15.952541 26.5361066,16.3136066 L26.5361066,22.5853279 L17.1840574,22.5853279 L17.1840574,16.3136066 C17.2193033,15.952541 17.3688934,15.6406557 17.6315984,15.3767213 C17.8963525,15.112377 18.3352869,14.9713934 18.9516803,14.9541803 L18.9516803,14.0828689 L13.0172541,14.0828689 L13.0172541,14.9541803 C13.6336475,14.9713934 14.075041,15.112377 14.3377459,15.3771311 C14.6016803,15.6406557 14.7447131,15.952541 14.779959,16.3136066 L14.779959,30.337377 C14.7447131,30.6980328 14.595123,31.0103279 14.3303689,31.2734426 C14.0684836,31.5377869 13.6266803,31.6783607 13.0102869,31.6963934 L13.0102869,32.5677049 L18.9516803,32.5677049 L18.9516803,31.6955738 C18.3352869,31.6783607 17.8852869,31.5377869 17.6234016,31.272623 C17.3586475,31.0095082 17.2193033,30.6972131 17.1840574,30.3365574 L17.1840574,23.747623 L26.5361066,23.747623 L26.5361066,32.5431148 C26.5361066,34.2861475 26.9197131,35.8701639 27.6861066,37.2972131 C28.4516803,38.7234426 29.5160246,39.8504918 30.8820082,40.6767213 C32.2447131,41.5041803 33.7893852,41.9177049 35.5152049,41.9177049 C36.8352869,41.9177049 38.1565984,41.6320492 39.4775,41.059918 C40.797582,40.4881967 41.9668443,39.4877869 42.9897951,38.062377 L42.3033197,37.5082787 Z" id="Fill-14" fill="#FEFEFE"></path>
    </g>
</svg>